<mxfile host="app.diagrams.net" modified="2024-01-07T16:49:11.400Z" agent="Mozilla/5.0 (Windows NT 10.0; Win64; x64) AppleWebKit/537.36 (KHTML, like Gecko) Chrome/120.0.0.0 Safari/537.36" etag="v-OEU_st_JYBRAhuk1X9" version="22.1.17" type="github">
  <diagram name="Page-1" id="SaG5RkMBY4uXLhKhSdqJ">
    <mxGraphModel dx="2013" dy="1622" grid="1" gridSize="10" guides="1" tooltips="1" connect="1" arrows="1" fold="1" page="1" pageScale="1" pageWidth="850" pageHeight="1100" math="0" shadow="0">
      <root>
        <mxCell id="0" />
        <mxCell id="1" parent="0" />
        <mxCell id="NP1iqPsxtxDzdF3vVpSx-9" value="" style="rounded=0;whiteSpace=wrap;html=1;" parent="1" vertex="1">
          <mxGeometry x="-1080" y="-800" width="640" height="690" as="geometry" />
        </mxCell>
        <mxCell id="NP1iqPsxtxDzdF3vVpSx-2" value="&lt;font style=&quot;font-size: 15px;&quot;&gt;Test Initiation&lt;/font&gt;" style="ellipse;whiteSpace=wrap;html=1;" parent="1" vertex="1">
          <mxGeometry x="-700" y="-600" width="120" height="80" as="geometry" />
        </mxCell>
        <mxCell id="NP1iqPsxtxDzdF3vVpSx-3" value="&lt;font style=&quot;font-size: 15px;&quot;&gt;Result Management&lt;/font&gt;" style="ellipse;whiteSpace=wrap;html=1;" parent="1" vertex="1">
          <mxGeometry x="-880" y="-780" width="120" height="80" as="geometry" />
        </mxCell>
        <mxCell id="NP1iqPsxtxDzdF3vVpSx-5" value="&lt;font style=&quot;font-size: 15px;&quot;&gt;Lecturer Functions&lt;/font&gt;" style="ellipse;whiteSpace=wrap;html=1;" parent="1" vertex="1">
          <mxGeometry x="-780" y="-360" width="120" height="80" as="geometry" />
        </mxCell>
        <mxCell id="KmL8ng4sVwqEaegbpeaS-14" style="edgeStyle=orthogonalEdgeStyle;rounded=0;orthogonalLoop=1;jettySize=auto;html=1;exitX=0.5;exitY=0.5;exitDx=0;exitDy=0;exitPerimeter=0;entryX=1;entryY=0.5;entryDx=0;entryDy=0;" parent="1" source="NP1iqPsxtxDzdF3vVpSx-6" target="NP1iqPsxtxDzdF3vVpSx-2" edge="1">
          <mxGeometry relative="1" as="geometry" />
        </mxCell>
        <mxCell id="NP1iqPsxtxDzdF3vVpSx-6" value="Student&lt;br&gt;" style="shape=umlActor;verticalLabelPosition=bottom;verticalAlign=top;html=1;outlineConnect=0;" parent="1" vertex="1">
          <mxGeometry x="-420" y="-410" width="30" height="60" as="geometry" />
        </mxCell>
        <mxCell id="NP1iqPsxtxDzdF3vVpSx-7" value="Lecturer" style="shape=umlActor;verticalLabelPosition=bottom;verticalAlign=top;html=1;outlineConnect=0;" parent="1" vertex="1">
          <mxGeometry x="-420" y="-290" width="30" height="60" as="geometry" />
        </mxCell>
        <mxCell id="NP1iqPsxtxDzdF3vVpSx-32" value="&lt;font style=&quot;&quot;&gt;&lt;font style=&quot;font-size: 15px;&quot;&gt;&lt;br&gt;Individual Student Registration&lt;/font&gt;&lt;br&gt;&lt;br&gt;&lt;/font&gt;" style="ellipse;whiteSpace=wrap;html=1;" parent="1" vertex="1">
          <mxGeometry x="-1050" y="-520" width="120" height="80" as="geometry" />
        </mxCell>
        <mxCell id="NP1iqPsxtxDzdF3vVpSx-39" value="" style="endArrow=classic;html=1;rounded=0;entryX=0.5;entryY=1;entryDx=0;entryDy=0;exitX=0;exitY=0.5;exitDx=0;exitDy=0;" parent="1" source="NP1iqPsxtxDzdF3vVpSx-2" target="NP1iqPsxtxDzdF3vVpSx-3" edge="1">
          <mxGeometry width="50" height="50" relative="1" as="geometry">
            <mxPoint x="-730" y="-640" as="sourcePoint" />
            <mxPoint x="-680" y="-690" as="targetPoint" />
            <Array as="points">
              <mxPoint x="-820" y="-560" />
            </Array>
          </mxGeometry>
        </mxCell>
        <mxCell id="NP1iqPsxtxDzdF3vVpSx-40" value="" style="endArrow=none;html=1;rounded=0;exitX=1;exitY=0.5;exitDx=0;exitDy=0;entryX=0.5;entryY=0.5;entryDx=0;entryDy=0;entryPerimeter=0;" parent="1" source="NP1iqPsxtxDzdF3vVpSx-5" target="NP1iqPsxtxDzdF3vVpSx-7" edge="1">
          <mxGeometry width="50" height="50" relative="1" as="geometry">
            <mxPoint x="-730" y="-470" as="sourcePoint" />
            <mxPoint x="-680" y="-520" as="targetPoint" />
            <Array as="points">
              <mxPoint x="-600" y="-320" />
              <mxPoint x="-600" y="-260" />
            </Array>
          </mxGeometry>
        </mxCell>
        <mxCell id="NP1iqPsxtxDzdF3vVpSx-42" value="&amp;lt;&amp;lt;extend&amp;gt;&amp;gt;" style="endArrow=open;endSize=12;dashed=1;html=1;rounded=0;fontFamily=Helvetica;fontSize=12;fontColor=default;entryX=1;entryY=1;entryDx=0;entryDy=0;" parent="1" source="NP1iqPsxtxDzdF3vVpSx-5" target="NP1iqPsxtxDzdF3vVpSx-32" edge="1">
          <mxGeometry x="0.0066" width="160" relative="1" as="geometry">
            <mxPoint x="-860" y="-410" as="sourcePoint" />
            <mxPoint x="-700" y="-410" as="targetPoint" />
            <mxPoint as="offset" />
          </mxGeometry>
        </mxCell>
        <mxCell id="NP1iqPsxtxDzdF3vVpSx-49" value="&lt;font style=&quot;font-size: 15px;&quot;&gt;Upload CSV&lt;br&gt;&amp;nbsp;test&lt;br&gt;questions&lt;/font&gt;" style="ellipse;whiteSpace=wrap;html=1;labelBackgroundColor=default;strokeColor=default;align=center;verticalAlign=middle;fontFamily=Helvetica;fontSize=12;fontColor=default;fillColor=default;horizontal=1;" parent="1" vertex="1">
          <mxGeometry x="-880" y="-520" width="120" height="80" as="geometry" />
        </mxCell>
        <mxCell id="NP1iqPsxtxDzdF3vVpSx-50" value="&amp;lt;&amp;lt;extend&amp;gt;&amp;gt;" style="endArrow=open;endSize=12;dashed=1;html=1;rounded=0;fontFamily=Helvetica;fontSize=12;fontColor=default;exitX=0.383;exitY=0.035;exitDx=0;exitDy=0;entryX=1;entryY=1;entryDx=0;entryDy=0;exitPerimeter=0;" parent="1" source="NP1iqPsxtxDzdF3vVpSx-5" target="NP1iqPsxtxDzdF3vVpSx-49" edge="1">
          <mxGeometry x="0.0066" width="160" relative="1" as="geometry">
            <mxPoint x="-980" y="-430" as="sourcePoint" />
            <mxPoint x="-752" y="-338" as="targetPoint" />
            <mxPoint as="offset" />
          </mxGeometry>
        </mxCell>
        <mxCell id="NP1iqPsxtxDzdF3vVpSx-51" value="&lt;div style=&quot;text-align: justify; line-height: 120%;&quot;&gt;Individual lecturer&lt;/div&gt;&lt;div style=&quot;text-align: justify; line-height: 120%;&quot;&gt;registration.&amp;nbsp;&lt;/div&gt;" style="ellipse;whiteSpace=wrap;html=1;labelBackgroundColor=default;strokeColor=default;align=center;verticalAlign=middle;fontFamily=Helvetica;fontSize=12;fontColor=default;fillColor=default;" parent="1" vertex="1">
          <mxGeometry x="-1020" y="-390" width="120" height="80" as="geometry" />
        </mxCell>
        <mxCell id="NP1iqPsxtxDzdF3vVpSx-53" value="&lt;font style=&quot;&quot;&gt;&lt;font style=&quot;font-size: 12px;&quot;&gt;View student scores&lt;/font&gt;&lt;br&gt;&lt;/font&gt;" style="ellipse;whiteSpace=wrap;html=1;labelBackgroundColor=default;strokeColor=default;align=center;verticalAlign=middle;fontFamily=Helvetica;fontSize=12;fontColor=default;fillColor=default;" parent="1" vertex="1">
          <mxGeometry x="-900" y="-200" width="120" height="80" as="geometry" />
        </mxCell>
        <mxCell id="NP1iqPsxtxDzdF3vVpSx-54" value="&lt;font style=&quot;font-size: 15px;&quot;&gt;Modify&lt;br&gt;&amp;nbsp;Student&lt;br&gt;&amp;nbsp;Records&lt;/font&gt;" style="ellipse;whiteSpace=wrap;html=1;labelBackgroundColor=default;strokeColor=default;align=center;verticalAlign=top;fontFamily=Helvetica;fontSize=12;fontColor=default;fillColor=default;" parent="1" vertex="1">
          <mxGeometry x="-750" y="-240" width="120" height="80" as="geometry" />
        </mxCell>
        <mxCell id="NP1iqPsxtxDzdF3vVpSx-55" value="&lt;font style=&quot;font-size: 12px;&quot;&gt;Expunging student &lt;br&gt;records&lt;br&gt;&lt;/font&gt;" style="ellipse;whiteSpace=wrap;html=1;labelBackgroundColor=default;strokeColor=default;align=center;verticalAlign=middle;fontFamily=Helvetica;fontSize=12;fontColor=default;fillColor=default;" parent="1" vertex="1">
          <mxGeometry x="-1060" y="-210" width="120" height="80" as="geometry" />
        </mxCell>
        <mxCell id="NP1iqPsxtxDzdF3vVpSx-58" value="Bulk&lt;br&gt;&amp;nbsp;Student&lt;br&gt;Registration" style="ellipse;whiteSpace=wrap;html=1;labelBackgroundColor=default;strokeColor=default;align=center;verticalAlign=middle;fontFamily=Helvetica;fontSize=15;fontColor=default;fillColor=default;" parent="1" vertex="1">
          <mxGeometry x="-1060" y="-300" width="120" height="80" as="geometry" />
        </mxCell>
        <mxCell id="NP1iqPsxtxDzdF3vVpSx-61" value="&lt;font style=&quot;font-size: 15px;&quot;&gt;View student&lt;br&gt;Scores&lt;/font&gt;" style="ellipse;whiteSpace=wrap;html=1;labelBackgroundColor=default;strokeColor=default;align=center;verticalAlign=middle;fontFamily=Helvetica;fontSize=12;fontColor=default;fillColor=default;" parent="1" vertex="1">
          <mxGeometry x="-1050" y="-710" width="120" height="80" as="geometry" />
        </mxCell>
        <mxCell id="NP1iqPsxtxDzdF3vVpSx-62" value="&lt;font style=&quot;font-size: 15px;&quot;&gt;Print &lt;br&gt;Scripts&lt;/font&gt;" style="ellipse;whiteSpace=wrap;html=1;labelBackgroundColor=default;strokeColor=default;align=center;verticalAlign=middle;fontFamily=Helvetica;fontSize=12;fontColor=default;fillColor=default;" parent="1" vertex="1">
          <mxGeometry x="-650" y="-720" width="120" height="80" as="geometry" />
        </mxCell>
        <mxCell id="NP1iqPsxtxDzdF3vVpSx-63" value="&amp;lt;&amp;lt;Iinclude&amp;gt;&amp;gt;" style="endArrow=open;endSize=12;dashed=1;html=1;rounded=0;fontFamily=Helvetica;fontSize=12;fontColor=default;exitX=0;exitY=0.5;exitDx=0;exitDy=0;entryX=1;entryY=0;entryDx=0;entryDy=0;" parent="1" source="NP1iqPsxtxDzdF3vVpSx-3" target="NP1iqPsxtxDzdF3vVpSx-61" edge="1">
          <mxGeometry x="0.0066" width="160" relative="1" as="geometry">
            <mxPoint x="-980" y="-430" as="sourcePoint" />
            <mxPoint x="-752" y="-338" as="targetPoint" />
            <mxPoint as="offset" />
          </mxGeometry>
        </mxCell>
        <mxCell id="NP1iqPsxtxDzdF3vVpSx-64" value="&amp;lt;&amp;lt;extend&amp;gt;&amp;gt;" style="endArrow=open;endSize=12;dashed=1;html=1;rounded=0;fontFamily=Helvetica;fontSize=12;fontColor=default;exitX=1;exitY=0.5;exitDx=0;exitDy=0;entryX=0.033;entryY=0.285;entryDx=0;entryDy=0;entryPerimeter=0;" parent="1" source="NP1iqPsxtxDzdF3vVpSx-3" target="NP1iqPsxtxDzdF3vVpSx-62" edge="1">
          <mxGeometry x="0.0066" width="160" relative="1" as="geometry">
            <mxPoint x="-980" y="-430" as="sourcePoint" />
            <mxPoint x="-752" y="-338" as="targetPoint" />
            <mxPoint as="offset" />
          </mxGeometry>
        </mxCell>
        <mxCell id="KmL8ng4sVwqEaegbpeaS-4" value="&amp;lt;&amp;lt;extend&amp;gt;&amp;gt;" style="endArrow=open;endSize=12;dashed=1;html=1;rounded=0;fontFamily=Helvetica;fontSize=12;fontColor=default;entryX=0.983;entryY=0.63;entryDx=0;entryDy=0;exitX=0;exitY=0.5;exitDx=0;exitDy=0;entryPerimeter=0;" parent="1" source="NP1iqPsxtxDzdF3vVpSx-5" target="NP1iqPsxtxDzdF3vVpSx-51" edge="1">
          <mxGeometry x="0.0066" width="160" relative="1" as="geometry">
            <mxPoint x="-777" y="-310" as="sourcePoint" />
            <mxPoint x="-960" y="-416" as="targetPoint" />
            <mxPoint as="offset" />
          </mxGeometry>
        </mxCell>
        <mxCell id="KmL8ng4sVwqEaegbpeaS-5" value="&amp;lt;&amp;lt;extend&amp;gt;&amp;gt;" style="endArrow=open;endSize=12;dashed=1;html=1;rounded=0;fontFamily=Helvetica;fontSize=12;fontColor=default;exitX=0.043;exitY=0.735;exitDx=0;exitDy=0;entryX=1;entryY=0.5;entryDx=0;entryDy=0;exitPerimeter=0;" parent="1" source="NP1iqPsxtxDzdF3vVpSx-5" target="NP1iqPsxtxDzdF3vVpSx-58" edge="1">
          <mxGeometry x="0.0066" width="160" relative="1" as="geometry">
            <mxPoint x="-806" y="-220" as="sourcePoint" />
            <mxPoint x="-850" y="-315" as="targetPoint" />
            <mxPoint as="offset" />
          </mxGeometry>
        </mxCell>
        <mxCell id="KmL8ng4sVwqEaegbpeaS-6" value="&amp;lt;&amp;lt;extend&amp;gt;&amp;gt;" style="endArrow=open;endSize=12;dashed=1;html=1;rounded=0;fontFamily=Helvetica;fontSize=12;fontColor=default;exitX=0;exitY=1;exitDx=0;exitDy=0;entryX=0.917;entryY=0.19;entryDx=0;entryDy=0;entryPerimeter=0;" parent="1" target="NP1iqPsxtxDzdF3vVpSx-55" edge="1">
          <mxGeometry x="0.0066" width="160" relative="1" as="geometry">
            <mxPoint x="-752" y="-282" as="sourcePoint" />
            <mxPoint x="-930" y="-250" as="targetPoint" />
            <mxPoint as="offset" />
          </mxGeometry>
        </mxCell>
        <mxCell id="KmL8ng4sVwqEaegbpeaS-7" value="&amp;lt;&amp;lt;extend&amp;gt;&amp;gt;" style="endArrow=open;endSize=12;dashed=1;html=1;rounded=0;fontFamily=Helvetica;fontSize=12;fontColor=default;exitX=0.5;exitY=1;exitDx=0;exitDy=0;entryX=0.81;entryY=0.065;entryDx=0;entryDy=0;entryPerimeter=0;" parent="1" source="NP1iqPsxtxDzdF3vVpSx-5" target="NP1iqPsxtxDzdF3vVpSx-53" edge="1">
          <mxGeometry x="0.0066" width="160" relative="1" as="geometry">
            <mxPoint x="-742" y="-272" as="sourcePoint" />
            <mxPoint x="-940" y="-185" as="targetPoint" />
            <mxPoint as="offset" />
          </mxGeometry>
        </mxCell>
        <mxCell id="KmL8ng4sVwqEaegbpeaS-8" value="&amp;lt;&amp;lt;extend&amp;gt;&amp;gt;" style="endArrow=open;endSize=12;dashed=1;html=1;rounded=0;fontFamily=Helvetica;fontSize=12;fontColor=default;exitX=1;exitY=1;exitDx=0;exitDy=0;entryX=0.427;entryY=0.035;entryDx=0;entryDy=0;entryPerimeter=0;" parent="1" source="NP1iqPsxtxDzdF3vVpSx-5" target="NP1iqPsxtxDzdF3vVpSx-54" edge="1">
          <mxGeometry x="0.0066" width="160" relative="1" as="geometry">
            <mxPoint x="-710" y="-270" as="sourcePoint" />
            <mxPoint x="-793" y="-185" as="targetPoint" />
            <mxPoint as="offset" />
          </mxGeometry>
        </mxCell>
        <mxCell id="KmL8ng4sVwqEaegbpeaS-15" value="&lt;span style=&quot;font-size: 15px;&quot;&gt;Input lecture details&lt;/span&gt;" style="ellipse;whiteSpace=wrap;html=1;" parent="1" vertex="1">
          <mxGeometry x="-690" y="-470" width="120" height="80" as="geometry" />
        </mxCell>
        <mxCell id="KmL8ng4sVwqEaegbpeaS-17" value="&amp;lt;&amp;lt;include&amp;gt;&amp;gt;" style="endArrow=open;endSize=12;dashed=1;html=1;rounded=0;fontFamily=Helvetica;fontSize=12;fontColor=default;exitX=0.347;exitY=1.01;exitDx=0;exitDy=0;entryX=0.77;entryY=0.065;entryDx=0;entryDy=0;exitPerimeter=0;entryPerimeter=0;" parent="1" source="KmL8ng4sVwqEaegbpeaS-15" target="NP1iqPsxtxDzdF3vVpSx-5" edge="1">
          <mxGeometry x="0.0066" width="160" relative="1" as="geometry">
            <mxPoint x="-724" y="-347" as="sourcePoint" />
            <mxPoint x="-768" y="-442" as="targetPoint" />
            <mxPoint as="offset" />
          </mxGeometry>
        </mxCell>
        <mxCell id="xLeNwhkKNbf6kl9M8xIa-1" value="&lt;span style=&quot;font-size: 15px;&quot;&gt;Bulk lecturer registration&lt;/span&gt;" style="ellipse;whiteSpace=wrap;html=1;" vertex="1" parent="1">
          <mxGeometry x="-580" y="-240" width="120" height="80" as="geometry" />
        </mxCell>
        <mxCell id="xLeNwhkKNbf6kl9M8xIa-2" value="&lt;span style=&quot;font-size: 15px;&quot;&gt;Set number of questions&lt;/span&gt;" style="ellipse;whiteSpace=wrap;html=1;" vertex="1" parent="1">
          <mxGeometry x="-580" y="-370" width="120" height="80" as="geometry" />
        </mxCell>
        <mxCell id="xLeNwhkKNbf6kl9M8xIa-3" value="&amp;lt;&amp;lt;extend&amp;gt;&amp;gt;" style="endArrow=open;endSize=12;dashed=1;html=1;rounded=0;fontFamily=Helvetica;fontSize=12;fontColor=default;exitX=0.945;exitY=0.732;exitDx=0;exitDy=0;entryX=0.012;entryY=0.332;entryDx=0;entryDy=0;entryPerimeter=0;exitPerimeter=0;" edge="1" parent="1" source="NP1iqPsxtxDzdF3vVpSx-5" target="xLeNwhkKNbf6kl9M8xIa-1">
          <mxGeometry x="0.0066" width="160" relative="1" as="geometry">
            <mxPoint x="-668" y="-282" as="sourcePoint" />
            <mxPoint x="-689" y="-227" as="targetPoint" />
            <mxPoint as="offset" />
          </mxGeometry>
        </mxCell>
        <mxCell id="xLeNwhkKNbf6kl9M8xIa-4" value="&amp;lt;&amp;lt;extend&amp;gt;&amp;gt;" style="endArrow=open;endSize=12;dashed=1;html=1;rounded=0;fontFamily=Helvetica;fontSize=12;fontColor=default;exitX=0.945;exitY=0.242;exitDx=0;exitDy=0;entryX=0.032;entryY=0.347;entryDx=0;entryDy=0;entryPerimeter=0;exitPerimeter=0;" edge="1" parent="1" source="NP1iqPsxtxDzdF3vVpSx-5" target="xLeNwhkKNbf6kl9M8xIa-2">
          <mxGeometry x="0.0066" width="160" relative="1" as="geometry">
            <mxPoint x="-668" y="-282" as="sourcePoint" />
            <mxPoint x="-689" y="-227" as="targetPoint" />
            <mxPoint as="offset" />
          </mxGeometry>
        </mxCell>
      </root>
    </mxGraphModel>
  </diagram>
</mxfile>
